# xmcd
#
# Track frame offsets:
#	150
#	21149
#	37865
#	50261
#	70804
#	92305
#	107162
#	122362
#	139860
#	152652
#	165025
#
# Disc length: 2464 seconds
#
# Revision: 2
# Processed by: cddbd v1.5.2PL0 Copyright (c) Steve Scherf et al.
# Submitted via: EasyCDDAExtractor 16.0.6.1
#
DISCID=75099e0b
DTITLE=Poco - C-119 Indian Summer
DYEAR=1900
DGENRE=Country
TTITLE0=Indian summer
TTITLE1=Twenty years
TTITLE2=Me and you
TTITLE3=Downfall
TTITLE4=Win or lose
TTITLE5=Living in the band
TTITLE6=Stay (Night until noon)
TTITLE7=Find out in time
TTITLE8=When the dance is over
TTITLE9=Go on and dance
TTITLE10=Never gonna stop - When the dance is over (Reprise)
EXTD=
EXTT0=
EXTT1=
EXTT2=
EXTT3=
EXTT4=
EXTT5=
EXTT6=
EXTT7=
EXTT8=
EXTT9=
EXTT10=
PLAYORDER=
